<?xml version="1.0" encoding="UTF-8" standalone="no"?>
<!-- Created with Inkscape (http://www.inkscape.org/) -->

<svg
   xmlns:dc="http://purl.org/dc/elements/1.1/"
   xmlns:cc="http://creativecommons.org/ns#"
   xmlns:rdf="http://www.w3.org/1999/02/22-rdf-syntax-ns#"
   xmlns:svg="http://www.w3.org/2000/svg"
   xmlns="http://www.w3.org/2000/svg"
   xmlns:sodipodi="http://sodipodi.sourceforge.net/DTD/sodipodi-0.dtd"
   xmlns:inkscape="http://www.inkscape.org/namespaces/inkscape"
   width="35.160618mm"
   height="35.161148mm"
   viewBox="0 0 35.160617 35.161148"
   version="1.1"
   id="svg8"
   sodipodi:docname="github.svg"
   inkscape:version="0.92.3 (2405546, 2018-03-11)">
  <defs
     id="defs2" />
  <sodipodi:namedview
     id="base"
     pagecolor="#ffffff"
     bordercolor="#666666"
     borderopacity="1.0"
     inkscape:pageopacity="0.0"
     inkscape:pageshadow="2"
     inkscape:zoom="1.4"
     inkscape:cx="-74.445944"
     inkscape:cy="66.897435"
     inkscape:document-units="mm"
     inkscape:current-layer="layer1"
     showgrid="false"
     inkscape:snap-global="false"
     inkscape:pagecheckerboard="true"
     inkscape:window-width="1366"
     inkscape:window-height="705"
     inkscape:window-x="-8"
     inkscape:window-y="-8"
     inkscape:window-maximized="1"
     fit-margin-top="0"
     fit-margin-left="0"
     fit-margin-right="0"
     fit-margin-bottom="0" />
  <metadata
     id="metadata5">
    <rdf:RDF>
      <cc:Work
         rdf:about="">
        <dc:format>image/svg+xml</dc:format>
        <dc:type
           rdf:resource="http://purl.org/dc/dcmitype/StillImage" />
        <dc:title />
      </cc:Work>
    </rdf:RDF>
  </metadata>
  <g
     inkscape:label="Layer 1"
     inkscape:groupmode="layer"
     id="layer1"
     transform="translate(213.59583,-97.870109)">
    <path
       style="fill:#000000;stroke-width:0.07930713"
       d="m -201.86242,131.35524 c -3.2782,-1.21867 -6.13418,-3.47787 -8.09255,-6.40156 -0.63191,-0.94338 -1.57682,-2.88313 -1.925,-3.95168 -1.09855,-3.37149 -1.09587,-6.91386 0.008,-10.26781 2.06301,-6.26944 7.63921,-10.69381 14.29553,-11.342639 4.90723,-0.478326 9.90216,1.324819 13.42296,4.845619 3.45182,3.45182 5.22891,8.38204 4.74629,13.16778 -0.11455,1.1358 -0.42059,2.6046 -0.75373,3.61734 -0.34732,1.05588 -1.29739,2.99987 -1.92136,3.93139 -1.67283,2.4974 -3.88221,4.42537 -6.56068,5.72505 -1.90126,0.92257 -2.60162,1.08027 -3.00548,0.67678 -0.16217,-0.16201 -0.16796,-0.25092 -0.2084,-3.19809 -0.04,-2.91219 -0.0488,-3.05174 -0.2252,-3.54695 -0.10099,-0.28352 -0.32399,-0.72151 -0.49556,-0.9733 -0.20786,-0.30504 -0.27826,-0.46754 -0.21098,-0.48698 0.0555,-0.0161 0.47568,-0.0897 0.93368,-0.16369 1.61379,-0.26066 3.16322,-0.91119 4.1382,-1.73744 1.08524,-0.91969 1.87407,-2.39748 2.16388,-4.05381 0.45803,-2.61774 0.0598,-4.68187 -1.20804,-6.26214 l -0.30777,-0.3836 0.1447,-0.52181 c 0.19828,-0.71507 0.19377,-1.98134 -0.0101,-2.83159 -0.24115,-1.00577 -0.28033,-1.0642 -0.71368,-1.0642 -0.80824,0 -2.0882,0.46591 -3.36262,1.22401 l -0.84234,0.50108 -0.61575,-0.14184 c -1.25053,-0.28806 -1.88354,-0.35057 -3.55012,-0.35057 -1.66658,0 -2.29959,0.0625 -3.55012,0.35057 l -0.61575,0.14184 -0.84234,-0.50108 c -1.27441,-0.7581 -2.55437,-1.22401 -3.36262,-1.22401 -0.43335,0 -0.47253,0.0584 -0.71367,1.0642 -0.20386,0.85025 -0.20837,2.11652 -0.0101,2.83159 l 0.1447,0.52181 -0.30777,0.3836 c -1.019,1.27007 -1.49008,2.88689 -1.37871,4.73193 0.17808,2.95001 1.1179,4.84174 3.02336,6.08565 0.90754,0.59244 2.23383,1.06614 3.56835,1.27448 1.02795,0.16049 0.96471,0.10441 0.63073,0.55937 -0.29105,0.3965 -0.66557,1.31122 -0.66871,1.63328 -0.004,0.41782 -1.90053,0.7317 -2.82145,0.46697 -0.85213,-0.24496 -1.45676,-0.73519 -2.04943,-1.66167 -0.37781,-0.59062 -0.90453,-1.08468 -1.48784,-1.39558 -0.96897,-0.51645 -2.17055,-0.34593 -1.70994,0.24267 0.0531,0.0679 0.29397,0.26843 0.53517,0.44562 0.75184,0.5523 1.21363,1.13189 1.70195,2.13612 0.51901,1.06737 0.94219,1.54875 1.69596,1.92926 0.78645,0.39699 1.39628,0.50377 2.58742,0.45301 0.56704,-0.0242 1.12913,-0.0676 1.24908,-0.0966 l 0.2181,-0.0527 v 1.67991 c 0,1.00052 -0.033,1.74161 -0.0817,1.83248 -0.10715,0.20022 -0.4882,0.39313 -0.76696,0.38829 -0.12211,-0.002 -0.49627,-0.1058 -0.83144,-0.2304 z m -0.26069,-4.86958 c -0.20984,-0.15344 -0.1026,-0.36836 0.18379,-0.36836 0.12689,0 0.27834,0.0574 0.33655,0.12755 0.0899,0.10836 0.0832,0.14414 -0.0451,0.23792 -0.18905,0.13824 -0.2893,0.13885 -0.47524,0.003 z m 1.22699,-0.12939 c -0.19778,-0.12608 0.009,-0.35793 0.31926,-0.35793 0.30166,0 0.37916,0.12298 0.19411,0.30803 -0.14408,0.14407 -0.33633,0.16276 -0.51337,0.0499 z m -2.6163,-0.11899 c -0.13972,-0.16836 -0.0395,-0.3579 0.18927,-0.3579 0.23657,0 0.45428,0.19906 0.39284,0.35918 -0.0582,0.1516 -0.45596,0.15073 -0.58211,-0.001 z m -1.09528,-0.61168 c -0.0523,-0.0523 -0.0952,-0.17725 -0.0952,-0.27757 0,-0.13747 0.0449,-0.18241 0.18241,-0.18241 0.23242,0 0.37274,0.14032 0.37274,0.37274 0,0.13747 -0.0449,0.18241 -0.1824,0.18241 -0.10033,0 -0.22524,-0.0428 -0.27758,-0.0952 z m -0.82434,-1.05694 c -0.0697,-0.15295 -0.0688,-0.22296 0.004,-0.29561 0.13787,-0.13788 0.36236,0.0253 0.3935,0.28594 0.0201,0.16818 -0.008,0.21009 -0.14049,0.21009 -0.10013,0 -0.20167,-0.0792 -0.25689,-0.20042 z m -0.66123,-0.91786 c -0.0807,-0.25411 0.084,-0.36774 0.27823,-0.19198 0.21769,0.19701 0.20308,0.35858 -0.0324,0.35858 -0.12636,0 -0.21117,-0.0575 -0.2458,-0.1666 z m -0.71551,-0.63338 c -0.0293,-0.0474 -0.0126,-0.12692 0.0372,-0.17666 0.0996,-0.0996 0.32936,0.002 0.38537,0.16941 0.0396,0.11886 -0.34942,0.12554 -0.42253,0.007 z"
       id="path828"
       inkscape:connector-curvature="0" />
  </g>
</svg>
