<?xml version="1.0" encoding="UTF-8" standalone="no"?>
<!-- Created with Inkscape (http://www.inkscape.org/) -->

<svg
   xmlns:dc="http://purl.org/dc/elements/1.1/"
   xmlns:cc="http://creativecommons.org/ns#"
   xmlns:rdf="http://www.w3.org/1999/02/22-rdf-syntax-ns#"
   xmlns:svg="http://www.w3.org/2000/svg"
   xmlns="http://www.w3.org/2000/svg"
   xmlns:sodipodi="http://sodipodi.sourceforge.net/DTD/sodipodi-0.dtd"
   xmlns:inkscape="http://www.inkscape.org/namespaces/inkscape"
   width="35.160618mm"
   height="35.161148mm"
   viewBox="0 0 35.160617 35.161148"
   version="1.1"
   id="svg8"
   sodipodi:docname="instagram.svg"
   inkscape:version="0.92.3 (2405546, 2018-03-11)">
  <defs
     id="defs2" />
  <sodipodi:namedview
     id="base"
     pagecolor="#ffffff"
     bordercolor="#666666"
     borderopacity="1.0"
     inkscape:pageopacity="0.0"
     inkscape:pageshadow="2"
     inkscape:zoom="1.4"
     inkscape:cx="-183.01737"
     inkscape:cy="74.040292"
     inkscape:document-units="mm"
     inkscape:current-layer="layer1"
     showgrid="false"
     inkscape:snap-global="false"
     inkscape:pagecheckerboard="true"
     inkscape:window-width="1366"
     inkscape:window-height="705"
     inkscape:window-x="-8"
     inkscape:window-y="-8"
     inkscape:window-maximized="1"
     fit-margin-top="0"
     fit-margin-left="0"
     fit-margin-right="0"
     fit-margin-bottom="0" />
  <metadata
     id="metadata5">
    <rdf:RDF>
      <cc:Work
         rdf:about="">
        <dc:format>image/svg+xml</dc:format>
        <dc:type
           rdf:resource="http://purl.org/dc/dcmitype/StillImage" />
        <dc:title />
      </cc:Work>
    </rdf:RDF>
  </metadata>
  <g
     inkscape:label="Layer 1"
     inkscape:groupmode="layer"
     id="layer1"
     transform="translate(213.59583,-97.870109)">
    <path
       style="fill:#000000;stroke-width:0.06530827"
       d="m -204.55589,132.09507 c -2.02943,-0.24098 -3.93854,-1.15671 -5.38745,-2.5842 -1.36942,-1.34915 -2.17282,-2.82568 -2.60731,-4.79178 l -0.15113,-0.68392 v -8.58803 -8.58804 l 0.15113,-0.68391 c 0.43449,-1.9661 1.23789,-3.44263 2.60731,-4.79179 1.26969,-1.25091 2.79755,-2.062238 4.65405,-2.471396 l 0.68574,-0.151134 h 8.58804 8.58803 l 0.68574,0.151134 c 1.89343,0.4173 3.40043,1.227826 4.71563,2.536266 1.3016,1.29489 2.12763,2.8281 2.54572,4.72509 l 0.15113,0.68574 v 8.58804 8.58803 l -0.15113,0.68574 c -0.82498,3.74319 -3.47849,6.40755 -7.2287,7.25825 l -0.65309,0.14815 -8.35945,0.0121 c -4.5977,0.006 -8.57312,-0.0133 -8.83426,-0.0443 z m 16.59078,-2.93468 c 1.05385,-0.0999 2.13153,-0.48391 2.98669,-1.06414 0.43228,-0.29331 1.2146,-1.06533 1.53424,-1.51406 0.63914,-0.89722 1.03619,-1.96975 1.14191,-3.08464 0.0898,-0.94655 0.0898,-15.15428 0,-16.10082 -0.0999,-1.05385 -0.4839,-2.13153 -1.06414,-2.98669 -0.29331,-0.43228 -1.06533,-1.2146 -1.51404,-1.53424 -0.89723,-0.63914 -1.96977,-1.03619 -3.08466,-1.14191 -0.94655,-0.0898 -15.15427,-0.0898 -16.10082,0 -1.11489,0.10572 -2.18742,0.50277 -3.08464,1.14191 -0.44873,0.31964 -1.22075,1.10196 -1.51406,1.53424 -0.58023,0.85516 -0.9642,1.93284 -1.06414,2.98669 -0.0898,0.94654 -0.0898,15.15427 0,16.10082 0.10573,1.11489 0.50277,2.18742 1.14191,3.08464 0.31965,0.44873 1.10196,1.22075 1.53425,1.51406 0.80889,0.54884 1.95009,0.97029 2.86765,1.05902 0.83605,0.0809 15.37282,0.0854 16.21985,0.005 z m -8.7688,-5.13256 c -0.72351,-0.0894 -1.14997,-0.17164 -1.67036,-0.32221 -3.18256,-0.92082 -5.56612,-3.61595 -6.11528,-6.91466 -0.099,-0.59478 -0.099,-2.09286 0,-2.68764 0.6123,-3.67794 3.48227,-6.54792 7.16022,-7.16022 0.59477,-0.099 2.09285,-0.099 2.68764,0 3.67466,0.61175 6.54846,3.48555 7.16021,7.16022 0.099,0.59478 0.099,2.09286 0,2.68764 -0.6065,3.64305 -3.49666,6.55644 -7.08895,7.14592 -0.4628,0.0759 -1.79518,0.13274 -2.13348,0.0909 z m 1.42958,-2.99362 c 1.27988,-0.10973 2.77579,-0.93475 3.6472,-2.0115 2.2595,-2.79194 1.42063,-6.89007 -1.75325,-8.56506 -0.98081,-0.51761 -2.00569,-0.7176 -3.15919,-0.61647 -1.86049,0.16313 -3.57287,1.32745 -4.45329,3.02797 -0.50186,0.96933 -0.69817,1.99649 -0.5986,3.13204 0.22972,2.6201 2.41775,4.81433 5.0416,5.05586 0.29243,0.0269 0.60516,0.0409 0.69496,0.031 0.0898,-0.01 0.35105,-0.0341 0.58057,-0.0538 z m 7.51246,-12.53214 c -0.47824,-0.19674 -0.79449,-0.4442 -1.03852,-0.81261 -0.26079,-0.39372 -0.35373,-0.73258 -0.34888,-1.27198 0.004,-0.35889 0.0427,-0.52036 0.21087,-0.8619 0.798,-1.62097 3.06598,-1.62413 3.86289,-0.006 0.3359,0.68232 0.28376,1.5065 -0.13537,2.13926 -0.38172,0.57629 -1.10189,0.96251 -1.79475,0.96251 -0.25929,0 -0.51513,-0.0507 -0.75624,-0.1499 z"
       id="path827"
       inkscape:connector-curvature="0" />
  </g>
</svg>
