<?xml version="1.0" encoding="UTF-8" standalone="no"?>
<!-- Created with Inkscape (http://www.inkscape.org/) -->

<svg
   xmlns:dc="http://purl.org/dc/elements/1.1/"
   xmlns:cc="http://creativecommons.org/ns#"
   xmlns:rdf="http://www.w3.org/1999/02/22-rdf-syntax-ns#"
   xmlns:svg="http://www.w3.org/2000/svg"
   xmlns="http://www.w3.org/2000/svg"
   xmlns:sodipodi="http://sodipodi.sourceforge.net/DTD/sodipodi-0.dtd"
   xmlns:inkscape="http://www.inkscape.org/namespaces/inkscape"
   width="35.160618mm"
   height="35.161148mm"
   viewBox="0 0 35.160617 35.161148"
   version="1.1"
   id="svg8"
   sodipodi:docname="pdf-download.svg"
   inkscape:version="0.92.3 (2405546, 2018-03-11)">
  <defs
     id="defs2" />
  <sodipodi:namedview
     id="base"
     pagecolor="#ffffff"
     bordercolor="#666666"
     borderopacity="1.0"
     inkscape:pageopacity="0.0"
     inkscape:pageshadow="2"
     inkscape:zoom="1.979899"
     inkscape:cx="77.62037"
     inkscape:cy="96.018646"
     inkscape:document-units="mm"
     inkscape:current-layer="layer1"
     showgrid="false"
     inkscape:snap-global="true"
     inkscape:pagecheckerboard="true"
     inkscape:window-width="1366"
     inkscape:window-height="705"
     inkscape:window-x="-8"
     inkscape:window-y="-8"
     inkscape:window-maximized="1"
     fit-margin-top="0"
     fit-margin-left="0"
     fit-margin-right="0"
     fit-margin-bottom="0"
     showguides="true"
     inkscape:guide-bbox="true"
     inkscape:object-paths="true" />
  <metadata
     id="metadata5">
    <rdf:RDF>
      <cc:Work
         rdf:about="">
        <dc:format>image/svg+xml</dc:format>
        <dc:type
           rdf:resource="http://purl.org/dc/dcmitype/StillImage" />
        <dc:title />
      </cc:Work>
    </rdf:RDF>
  </metadata>
  <g
     inkscape:label="Layer 1"
     inkscape:groupmode="layer"
     id="layer1"
     transform="translate(213.59583,-97.870109)">
    <path
       style="fill:#000000;stroke-width:0.38732523"
       d="M 55.138672 3.7890625 C 33.652549 3.7663853 22.254507 3.8889718 22.097656 4.1425781 C 21.966129 4.3557435 21.225434 4.5292969 20.453125 4.5292969 C 17.284369 4.5292969 13.467195 7.6406123 11.507812 11.820312 C 10.503819 13.958656 10.476562 14.217885 10.476562 21.376953 L 10.476562 23.291016 L 10.359375 31.150391 L 10.269531 31.150391 L 10.283203 36.240234 L 10.283203 36.294922 L 10.375 68.236328 L 10.478516 105.32422 L 11.5 107.5 C 13.366784 111.48132 16.164535 113.94145 20 114.97266 C 21.7136 115.43315 26.060855 115.53982 43.691406 115.5625 C 55.567778 115.57762 65.285156 115.49097 65.285156 115.37305 C 65.285156 115.25513 64.322787 113.9528 63.146484 112.47852 L 61.007812 109.79883 L 40.943359 109.69141 L 20.878906 109.58398 L 19.517578 108.65039 C 17.634429 107.35968 16.561543 105.6565 16.099609 103.2207 C 15.852428 101.91809 15.707031 88.175663 15.707031 66.150391 L 15.707031 35.855469 L 15.707031 31.150391 L 15.6875 31.150391 L 15.669922 26.888672 L 15.785156 22.267578 C 15.967329 14.978721 16.258192 13.747667 18.267578 11.738281 C 20.52286 9.4829994 19.27907 11.734494 52.876953 9.5664062 L 83.875 9.5664062 L 83.876953 23.607422 C 83.878276 32.084486 84.037558 38.218814 84.279297 39.089844 C 84.87805 41.245837 86.932528 43.677113 89.095703 44.791016 L 91.017578 45.78125 L 104.10156 45.896484 L 117.18555 46.013672 L 117.17773 53.925781 C 117.17018 85.343482 117.03107 102.43715 116.76953 103.58008 C 116.27332 105.75032 115.14387 107.43947 113.37891 108.65039 C 112.14769 109.49512 111.51081 109.60197 106.68359 109.77734 L 101.34961 109.9707 L 99.169922 112.7793 L 96.988281 115.58789 L 103.94727 115.58789 C 112.31578 115.58789 114.7967 115.02351 117.7168 112.45312 C 121.31544 109.2855 122.7905 105.2474 122.30664 99.900391 C 122.15433 98.196164 122.07297 93.92707 122.12891 90.412109 C 122.18484 86.897111 122.31844 65.545896 122.42578 42.964844 L 122.62109 41.908203 L 108.96094 26.949219 C 101.44848 18.721452 93.646795 10.150315 91.623047 7.9042969 L 87.943359 3.8222656 L 55.138672 3.7890625 z M 89.494141 14.083984 L 95.294922 20.443359 C 98.485561 23.940934 101.18771 26.889511 101.29883 26.996094 C 101.40995 27.102676 104.17252 30.10952 107.4375 33.677734 L 113.37305 40.164062 L 102.74414 40.164062 C 92.609262 40.164062 92.067749 40.126256 91.103516 39.369141 C 89.429601 38.052391 89.252229 36.566645 89.376953 24.896484 L 89.494141 14.083984 z M 81.40625 71.164062 C 69.656681 71.164062 68.39342 71.226036 67.648438 71.841797 C 66.837238 72.512096 66.827351 72.718791 66.734375 90.337891 L 66.640625 92.154297 L 61.373047 92.347656 C 56.146678 92.539656 54.828125 92.886791 54.828125 94.070312 C 54.828125 94.574388 56.380664 96.672033 63.546875 105.83984 C 66.100248 109.10645 68.447262 112.15578 68.761719 112.61719 C 69.746928 114.0624 73.494511 118.83009 74.521484 119.94531 C 74.57402 120.00238 74.609825 120.03176 74.658203 120.08203 L 81.699219 129.10742 L 94.728516 111.30664 C 94.781051 111.23559 94.819692 111.18201 94.871094 111.11133 L 98.705078 105.87305 C 99.11527 105.39146 99.591075 104.84365 100.17188 104.18359 C 100.93285 103.31876 102.06501 101.91463 102.6875 101.0625 C 103.30999 100.21041 103.91528 99.426895 104.0332 99.320312 C 104.15112 99.21373 104.67099 98.515119 105.1875 97.769531 C 105.70401 97.023906 106.43586 96.077089 106.81445 95.664062 C 107.62588 94.779086 107.71335 93.391709 106.99414 92.794922 C 106.69745 92.548875 104.30884 92.324837 101.28125 92.261719 L 96.078125 92.154297 L 95.882812 90.445312 C 95.706687 74.348456 95.628438 72.666523 95.015625 71.951172 C 94.363052 71.190693 93.93047 71.164062 81.40625 71.164062 z "
       transform="matrix(0.26458333,0,0,0.26458333,-213.59583,97.870109)"
       id="path827" />
  </g>
</svg>
