<?xml version="1.0" encoding="UTF-8" standalone="no"?>
<!-- Created with Inkscape (http://www.inkscape.org/) -->

<svg
   xmlns:dc="http://purl.org/dc/elements/1.1/"
   xmlns:cc="http://creativecommons.org/ns#"
   xmlns:rdf="http://www.w3.org/1999/02/22-rdf-syntax-ns#"
   xmlns:svg="http://www.w3.org/2000/svg"
   xmlns="http://www.w3.org/2000/svg"
   xmlns:sodipodi="http://sodipodi.sourceforge.net/DTD/sodipodi-0.dtd"
   xmlns:inkscape="http://www.inkscape.org/namespaces/inkscape"
   width="35.160618mm"
   height="35.161148mm"
   viewBox="0 0 35.160617 35.161148"
   version="1.1"
   id="svg8"
   sodipodi:docname="instagram - Copy.svg"
   inkscape:version="0.92.3 (2405546, 2018-03-11)">
  <defs
     id="defs2" />
  <sodipodi:namedview
     id="base"
     pagecolor="#ffffff"
     bordercolor="#666666"
     borderopacity="1.0"
     inkscape:pageopacity="0.0"
     inkscape:pageshadow="2"
     inkscape:zoom="0.7"
     inkscape:cx="-216.65163"
     inkscape:cy="37.053525"
     inkscape:document-units="mm"
     inkscape:current-layer="layer1"
     showgrid="false"
     inkscape:snap-global="false"
     inkscape:pagecheckerboard="true"
     inkscape:window-width="1366"
     inkscape:window-height="705"
     inkscape:window-x="-8"
     inkscape:window-y="-8"
     inkscape:window-maximized="1"
     fit-margin-top="0"
     fit-margin-left="0"
     fit-margin-right="0"
     fit-margin-bottom="0" />
  <metadata
     id="metadata5">
    <rdf:RDF>
      <cc:Work
         rdf:about="">
        <dc:format>image/svg+xml</dc:format>
        <dc:type
           rdf:resource="http://purl.org/dc/dcmitype/StillImage" />
        <dc:title />
      </cc:Work>
    </rdf:RDF>
  </metadata>
  <g
     inkscape:label="Layer 1"
     inkscape:groupmode="layer"
     id="layer1"
     transform="translate(213.59583,-97.870109)">
    <path
       inkscape:connector-curvature="0"
       id="path847"
       d="m -202.8565,129.12791 c -3.31757,-0.0823 -6.65306,-1.0443 -9.49243,-2.73765 -0.20072,-0.1197 -0.3594,-0.22318 -0.35262,-0.22996 0.007,-0.007 0.18296,0.002 0.39151,0.0185 0.78876,0.0641 1.89708,0.0337 2.77488,-0.0759 2.1636,-0.27026 4.27676,-1.07189 6.11468,-2.31963 0.50561,-0.34325 0.74903,-0.53588 0.7341,-0.58094 -0.007,-0.0197 -0.10228,-0.0446 -0.21705,-0.0564 -0.63663,-0.0656 -0.83118,-0.093 -1.14039,-0.16044 -1.99835,-0.4359 -3.73099,-1.77427 -4.6538,-3.59478 -0.19242,-0.37961 -0.40487,-0.89599 -0.37919,-0.92167 0.009,-0.009 0.12634,3.2e-4 0.26118,0.0203 0.64698,0.0958 1.54432,0.0717 2.24877,-0.0603 0.65355,-0.12249 0.66586,-0.16825 0.0878,-0.32646 -2.31892,-0.6347 -4.14596,-2.43483 -4.80603,-4.73529 -0.14685,-0.51178 -0.26851,-1.30485 -0.26851,-1.75037 v -0.16054 l 0.17255,0.0871 c 0.80841,0.40808 1.87543,0.69768 2.66218,0.72253 0.30989,0.01 0.31365,-0.0357 0.0209,-0.25312 -0.85946,-0.63845 -1.57875,-1.48594 -2.04614,-2.41084 -0.83991,-1.66204 -0.97952,-3.57456 -0.39005,-5.34293 0.11456,-0.34364 0.48984,-1.17247 0.53088,-1.17247 0.011,0 0.17192,0.17698 0.35753,0.3933 0.71468,0.83287 1.90565,1.95932 2.83289,2.67939 3.07917,2.39125 6.87915,3.83612 10.77589,4.09735 0.37744,0.0253 0.38829,0.0163 0.32867,-0.2723 -0.13178,-0.63784 -0.1605,-1.63124 -0.066,-2.28204 0.17506,-1.20529 0.64208,-2.32294 1.36001,-3.25476 0.44119,-0.57263 1.1,-1.18334 1.70078,-1.57661 0.36385,-0.23818 1.14665,-0.61835 1.54351,-0.74962 1.75924,-0.58192 3.62238,-0.46065 5.25389,0.34197 0.66743,0.32834 1.18666,0.69063 1.7577,1.22638 0.31594,0.29643 0.20495,0.28411 0.94065,0.10441 1.09556,-0.2676 2.3029,-0.73442 3.27892,-1.2678 0.18564,-0.10145 0.34312,-0.17886 0.34997,-0.17202 0.0198,0.0198 -0.1574,0.45072 -0.33162,0.80656 -0.50528,1.032 -1.30576,1.9474 -2.30891,2.64035 -0.15994,0.11048 -0.28542,0.21611 -0.27885,0.23472 0.0183,0.0519 0.30051,0.0314 0.78797,-0.0573 0.88794,-0.16149 1.78354,-0.41373 2.596,-0.73113 0.20919,-0.0817 0.38651,-0.1424 0.39407,-0.13485 0.0194,0.0194 -0.27133,0.42096 -0.59614,0.82354 -0.71334,0.88416 -1.55211,1.70305 -2.40934,2.35224 l -0.29867,0.22618 -0.0163,1.06316 c -0.017,1.1097 -0.0564,1.64864 -0.18729,2.56215 -0.57897,4.04193 -2.42484,7.94023 -5.16444,10.90685 -3.227,3.4944 -7.45016,5.54911 -12.33112,5.9995 -0.45393,0.0419 -1.91916,0.10743 -2.12233,0.0949 -0.0489,-0.003 -0.22929,-0.009 -0.40072,-0.0132 z"
       style="fill:#000000;stroke-width:0.02968292" />
  </g>
</svg>
